<svg xmlns="http://www.w3.org/2000/svg" width="1024" height="1024"><path fill="#9810FA" d="M395.313 212.625c4.116 3.637 6.341 6.9 7.1 12.333.204 3.434.295 6.852.337 10.292l.09 3.586c.097 4.055.16 8.108.16 12.164h92v-28c2.924-5.849 5.552-10.506 11.988-12.668 5.304-.875 10.18-.18 14.711 2.777 3.803 2.984 5.98 5.54 6.636 10.345l.114 2.722.131 3.01.107 3.126.143 3.092c.217 5.497-.037 10.047-.83 15.596h93v-24c2.433-9.73 2.433-9.73 7-14 4.678-2.799 9.38-3.617 14.754-2.77 4.253 1.457 7.499 4.259 10.246 7.77 1.72 4.303 2.24 7.874 2.195 12.492l-.02 3.633-.05 3.75-.027 3.82A1621 1621 0 0 1 655 251l1.766-.027c6.133-.09 12.266-.15 18.4-.193q3.422-.03 6.843-.082c21.22-.316 39.882 1.91 55.991 17.302 14.703 16.636 18.469 34.623 18.388 56.084q.006 2.71.016 5.42c.014 4.933.01 9.866.003 14.8-.005 5.333.008 10.666.018 15.998.017 10.436.018 20.872.013 31.308q-.006 12.727.002 25.456l.003 3.664.004 7.37c.014 23.024.009 46.047-.003 69.07-.01 21.043.003 42.087.027 63.13q.037 32.443.027 64.887-.007 18.202.017 36.403.022 15.495-.002 30.99c-.009 5.266-.011 10.531.004 15.797q.02 7.245-.01 14.488-.005 2.607.01 5.214c.103 18.49-3.089 36.948-16.322 50.952-18.516 16.605-37.94 20.131-62.147 20.103l-4.508.007q-6.162.008-12.324.004c-4.44 0-8.879.006-13.318.01q-13.034.012-26.069.012-10.6 0-21.201.006-30.087.014-60.174.012h-6.552q-26.284.002-52.568.023-27.019.023-54.038.02-15.158-.001-30.313.014-12.908.014-25.814.005-6.578-.007-13.154.005-6.038.011-12.074-.002-2.167-.003-4.336.005c-20.3.074-37.352-2.154-53.605-15.255l-2.535-1.914C275.6 773.738 269.024 760.694 267 748c-.094-2.512-.14-4.996-.134-7.507l-.007-2.276q-.009-3.786-.006-7.573l-.011-5.475q-.014-7.533-.017-15.067-.007-8.121-.022-16.242c-.02-13.079-.03-26.158-.039-39.238l-.015-18.481a128804 128804 0 0 1-.044-77.391v-2.002q-.015-33.09-.068-66.183-.049-32.954-.054-65.906a19497 19497 0 0 0-.036-36.999q-.034-15.758-.02-31.514c.004-5.357.002-10.714-.017-16.07q-.026-7.368-.001-14.735.003-2.655-.014-5.308c-.13-20.424 4.66-37.728 19.165-52.853 12.794-11.919 27.774-16.548 44.938-16.375l3.257.008c3.403.011 6.805.036 10.207.062q3.48.016 6.96.027 8.49.034 16.978.098l.012-2.643q.044-4.895.14-9.79.036-2.11.044-4.222c.067-14.658.067-14.658 5.804-20.345 6.753-5.028 13.962-4.98 21.313-1.375m-91.5 86.125c-5.042 9.04-4.095 19.498-4.067 29.527q-.003 2.651-.01 5.302c-.008 4.845-.004 9.689.003 14.533.004 5.229-.003 10.458-.008 15.687-.01 10.238-.007 20.477-.002 30.715q.007 12.482.003 24.962v3.59l-.003 7.217q-.006 33.838.012 67.675.012 29.035-.002 58.072a89999 89999 0 0 0-.006 78.201q.003 12.467-.006 24.934-.009 15.192.007 30.383.009 7.751 0 15.503-.007 7.095.009 14.19.003 2.568-.004 5.134-.007 3.491.01 6.982v3.915c.69 10.252 4.314 17.365 11.86 24.15 8.095 5.344 16.365 5.01 25.699 4.98q2.348.008 4.697.02c4.291.018 8.583.018 12.874.014 4.633 0 9.265.016 13.898.03 9.072.025 18.144.033 27.217.035q11.063.003 22.127.017a45804 45804 0 0 0 66.177.038h3.42c18.292-.002 36.584.027 54.875.07q28.185.064 56.37.06c10.547 0 21.092.008 31.638.04q13.469.042 26.938.014c4.578-.01 9.157-.01 13.736.016q6.295.033 12.59-.007 2.27-.008 4.539.017c10.453.109 19.536-1.366 27.621-8.57 10.136-10.768 8.123-26.399 8.109-40.128l.007-5.117q.008-6.998.004-13.994.002-7.56.01-15.12.012-14.797.012-29.595 0-12.033.006-24.066.014-34.146.012-68.291v-7.436q.002-29.84.023-59.677.023-30.668.02-61.334-.001-17.206.014-34.411.014-14.65.005-29.3-.007-7.467.005-14.934.011-6.85-.002-13.7-.003-2.464.005-4.928c.912-21.018.912-21.018-7.255-39.165-8.139-7.523-14.756-9.31-25.648-9.195l-3.069.008c-3.22.011-6.439.037-9.658.062q-3.284.016-6.566.027-8.03.034-16.059.098c-1.21 2.42-1.14 4.023-1.176 6.727l-.072 2.878q-.064 2.985-.094 5.97c-.181 6.273-1.022 11.197-4.658 16.425-3.757 3.235-8.105 4.14-13 4-4.542-.837-7.982-2.086-11.437-5.187-5.226-9.406-4.043-20.407-4.563-30.813h-93v14c-.505 13.13-.505 13.13-5 18-3.88 3.125-8.067 4.14-13 4-4.727-.87-8.074-2.074-11.5-5.5-5.724-9.54-2.98-17.52-3.5-30.5h-93l-1 26c-5.828 8.16-5.828 8.16-11.527 9.691-4.427.553-8.326-.081-12.473-1.691-4.392-3.477-6.567-6.575-7.543-12.043-.52-4.499-.567-8.873-.52-13.394l.014-2.506q.02-3.03.049-6.057c-6.653-.128-13.305-.215-19.958-.275q-3.39-.038-6.78-.102c-3.262-.061-6.523-.09-9.785-.111l-3.026-.078c-11.252-.005-18.73 4.63-25.639 13.316"/><path fill="#9810FA" d="M457 439c3.507 2.849 6.71 5.85 7.336 10.488l.039 2.825.086 2.8c-.974 6.099-5.658 10.37-9.926 14.547l-1.561 1.553a1546 1546 0 0 1-4.911 4.85l-3.288 3.26q-3.03 3.005-6.068 6.001a651 651 0 0 0-5.365 5.365C431 493 431 493 427.938 495.5c-2.943 2.344-2.943 2.344-4.938 5-2.367 2.959-5.068 5.107-8 7.5a281 281 0 0 0-5 5q-2.404 2.409-4.812 4.813l-2.395 2.394L401 522c1.154 3.463 2.284 4.294 5.063 6.563A73 73 0 0 1 410 532v2l1.688.688c2.97 1.686 4.957 3.842 7.312 6.312l2.563 2.5c2.437 2.5 2.437 2.5 4.25 4.875 2.499 2.999 5.272 5.395 8.23 7.93 3.226 2.795 6.178 5.675 8.77 9.07 2.443 2.932 5.137 5.251 8.027 7.73 11.68 10.245 11.68 10.245 14.035 17.645.227 5.913-1.548 10.609-5.25 15.188-4.77 3.748-8.556 4.68-14.625 4.062-6.407-2.304-10.87-6.298-15.578-11.076l-2.151-2.135a1500 1500 0 0 1-6.95-6.973q-2.43-2.43-4.862-4.857a4021 4021 0 0 1-10.142-10.175 3883 3883 0 0 0-13.013-13.027 4886 4886 0 0 1-10.016-10.03 2578 2578 0 0 0-4.802-4.801 1713 1713 0 0 1-6.685-6.72l-2.008-1.996c-4.38-4.451-6.451-7.648-7.293-13.96.303-9.485 9.958-17.137 16.203-23.316l2.785-2.787q2.892-2.892 5.8-5.77 3.726-3.696 7.43-7.415c2.365-2.369 4.738-4.73 7.11-7.09l2.696-2.7 2.489-2.46 2.192-2.178C410 469 410 469 412 469l.75-1.875c1.487-2.529 2.687-2.843 5.25-4.125.3-.617.598-1.235.906-1.871 1.23-2.395 2.499-3.527 4.594-5.192 2.437-1.946 3.723-3.27 5.5-5.937h2l1-3h2l.563-1.687c2.365-3.806 6.132-6.492 10.355-7.997 4.15-.63 8.142.375 12.082 1.684"/><path fill="#9810FA" d="M575.688 418.625c4.695 3.018 6.787 6.616 8.375 11.938.29 3.776-.675 6.503-2.075 9.996l-1.39 3.495L579 448l-1.764 4.397a4657 4657 0 0 1-6.111 15.103l-2.271 5.604q-2.88 7.103-5.763 14.207l-4.943 12.189-5.497 13.559q-4.803 11.841-9.592 23.687-5.892 14.572-11.797 29.14l-4.096 10.112q-3.744 9.242-7.498 18.481-1.47 3.62-2.936 7.24a7361 7361 0 0 1-4.127 10.164l-1.232 3.05c-6.698 16.43-6.698 16.43-12.373 20.067-4.353 1.45-8.581 1.853-12.937.316-4.335-2.25-6.848-4.885-9.063-9.316-1.228-5.99-.85-9.869 1.621-15.504l.88-2.13c.962-2.318 1.95-4.623 2.937-6.928q1.032-2.469 2.058-4.938 2.152-5.167 4.328-10.322c2.09-4.96 4.14-9.934 6.176-14.916l.983-2.407 1.966-4.813q2.507-6.123 5.024-12.241l2.02-4.916 1.006-2.45q4.44-10.81 8.876-21.622l.988-2.408q6.413-15.625 12.804-31.26 2.863-7.005 5.734-14.01a3559 3559 0 0 0 9.684-23.801q1.91-4.748 3.833-9.49a847 847 0 0 0 1.752-4.38c.794-2 1.602-3.994 2.412-5.987l1.35-3.373c2.17-4.297 4.695-8.02 8.943-10.479 4.853-1.156 8.83-1.303 13.313 1"/><path fill="#9810FA" d="M607.75 459.375c3.613 2.916 6.942 6.122 10.25 9.375l1.495 1.466C623 473.755 623 473.755 623 476l1.774.79c2.37 1.288 3.94 2.67 5.845 4.57l2.094 2.075 2.228 2.24 2.316 2.31q2.42 2.42 4.834 4.845c2.459 2.47 4.928 4.929 7.4 7.387q2.35 2.353 4.7 4.709l2.235 2.223c5.492 5.541 9.155 9.746 9.574 17.851-1.255 11.088-13.613 19.755-21.11 27.207l-2.817 2.813a6828 6828 0 0 1-7.333 7.308q-3.729 3.716-7.455 7.436-5.454 5.442-10.913 10.88c-5.843 5.803-5.843 5.803-11.618 11.672-10.578 10.843-10.578 10.843-18.254 11.184-4.92-.2-7.8-1.07-11.5-4.5-3.133-3.896-4.795-6.975-5-12 1.137-5.522 2.837-8.455 6.83-12.397l1.483-1.486a612 612 0 0 1 4.863-4.781q1.695-1.68 3.386-3.364c2.964-2.946 5.943-5.876 8.926-8.803 3.022-2.972 6.031-5.958 9.041-8.942a5555 5555 0 0 1 15.947-15.737c2.52-2.485 5.024-4.985 7.524-7.49-1.452-3.344-3.278-5.512-5.867-8.062l-2.407-2.387-2.601-2.551-2.667-2.645Q610.235 504.171 606 500q-5.57-5.491-11.125-11l-2.601-2.55-2.407-2.387-2.121-2.09c-3.791-4.285-4.185-7.931-4.062-13.5.47-3.68 1.855-5.746 4.316-8.473 6.446-4.674 13.008-5.42 19.75-.625"/><path fill="#9810FA" d="M723 310c3.592 3.592 2.819 9.12 3 14-.024 4.31-.22 8.605-.43 12.91-.67 16.23-.724 32.443-.7 48.685q.006 6.079-.004 12.158c-.086 22.042-.086 22.042.872 44.057.29 4.596.169 9.014-.203 13.607-.702 8.837-.68 17.642-.668 26.501l-.003 5.376q-.002 5.595.006 11.192.006 7.131-.004 14.262-.005 5.537 0 11.075 0 2.628-.002 5.256c-.078 10.684-.078 10.684.707 21.328.516 4.828.293 9.474 0 14.305-.81 13.553-.718 27.113-.705 40.684q.002 5.637-.002 11.274-.003 9.438.006 18.877.007 10.878-.002 21.756-.007 9.402-.003 18.806.003 5.59-.001 11.179c-.004 4.144.001 8.288.007 12.431l-.007 3.69c.016 6.29.364 12.35 1.136 18.591a134 134 0 0 1-.437 7.563l-.31 3.69L725 736h-2z"/><path fill="#9810FA" d="M325 764h376l-1 2c-20.266.766-40.495 1.15-60.777 1.133l-6.333.003q-11.35.005-22.7-.005-8.382-.007-16.763-.009c-59.21-.015-118.417-.328-177.625-.748l-7.486-.053q-10.423-.074-20.846-.152-4.176-.033-8.352-.062l-6.017-.047q-10.69-.08-21.38-.003l-4.612.026q-4.397.025-8.793.082l-3.965.023-3.505.036C328 766 328 766 325 764"/><path fill="#9810FA" d="M325 251v1l-2.117.367-2.758.508-2.742.492c-2.548.463-2.548.463-4.383 2.633h-3c-9.797 1.837-19.362 8.694-26 16-1.448 2.193-2.669 4.4-3.844 6.75-1.134 2.206-2.431 4.152-3.844 6.188-2.357 3.698-3.202 7.162-3.855 11.472-.457 2.59-.457 2.59-1.47 5.642-1.313 4.563-1.258 8.993-1.228 13.711l-.005 2.926c-.003 3.226.008 6.452.019 9.678v6.949c-.002 6.282.01 12.565.024 18.847.013 6.568.014 13.135.016 19.703q.008 16.532.036 33.065.028 17.025.041 34.05l.002 2.122.007 10.537q.032 43.68.101 87.36h-2c-.813-29.706-1.188-59.393-1.238-89.11l-.013-6.309q-.028-14.775-.041-29.548-.016-16.884-.077-33.767a8642 8642 0 0 1-.048-26.411 3545 3545 0 0 0-.036-15.655q-.035-7.324-.018-14.648.001-2.666-.02-5.332c-.15-20.506 4.58-37.846 19.151-53.04 10.458-9.743 24.751-16.928 39.34-16.18"/><path fill="#9810FA" d="M267 498h1l.076 3.931q.142 7.193.296 14.386.065 3.117.125 6.236.088 4.471.187 8.943l.05 2.835.06 2.608.048 2.308c-.028 1.78-.028 1.78 1.158 2.753a74 74 0 0 1 .127 4.647l.009 3.054-.007 3.387.006 3.555q.004 4.875 0 9.748-.003 4.121 0 8.242c.006 8.113.001 16.226-.006 24.339l-.008 11.428c-.034 70.86-.034 70.86-.469 105.484a3438 3438 0 0 0-.073 6.725c-.042 4.029-.102 8.058-.165 12.086l-.035 3.472-.06 3.091-.04 2.656C269 746 269 746 267 748z"/><path fill="#9810FA" d="M723 310c3.592 3.592 2.819 9.12 3 14-.024 4.31-.22 8.605-.43 12.91-.67 16.23-.724 32.443-.7 48.685q.006 6.079-.004 12.158c-.04 22.315-.04 22.315.812 44.611C726.681 459.48 726.681 459.48 723 465z"/><path fill="#9810FA" d="M497 797c1.395.044 2.792.04 4.188 0 4.368-.057 8.491.372 12.812 1l1-2 2.591.493c3.379.502 6.532.627 9.945.62h3.933l4.279-.015 4.535-.005q4.876-.005 9.753-.018 7.733-.019 15.464-.024c11.886-.012 23.772-.034 35.658-.056 10.87-.02 21.74-.039 32.611-.048q7.664-.008 15.326-.029 4.803-.01 9.606-.013 2.202-.003 4.402-.01c10.004-.037 19.923.374 29.897 1.105v1H485v-1a367 367 0 0 1 4.313-1.062l2.425-.598C494 796 494 796 497 797"/><path fill="#9810FA" d="M267 498h1l.076 3.931q.142 7.193.296 14.386.065 3.117.125 6.236.088 4.471.187 8.943l.05 2.835.06 2.608.048 2.308c-.028 1.78-.028 1.78 1.158 2.753.095 2.464.126 4.9.114 7.365v2.336c0 2.56-.009 5.119-.016 7.678l-.005 5.31q-.006 7-.024 14.001-.014 7.139-.02 14.277-.016 14.017-.049 28.033l-2 1c-1.13-13.732-1.13-27.417-1.098-41.187l.005-7.196q.006-9.39.024-18.78.014-9.615.02-19.228.016-18.804.049-37.609"/><path fill="#9810FA" d="M400 219c2.277 3.415 2.294 4.848 2.414 8.875l.117 3.484.094 3.641.117 3.64c.13 4.121.258 8.237.258 12.36h93l-1 2a8728 8728 0 0 1-35.83.207q-8.32.03-16.637.095-8.024.063-16.048.078a886 886 0 0 0-6.13.043c-2.857.029-5.712.033-8.57.031l-2.573.044c-5.705-.04-5.705-.04-8.24-2.326-1.394-3.115-1.308-5.721-1.265-9.125l.013-2c.017-2.1.054-4.198.092-6.297q.024-2.14.042-4.281.051-5.235.146-10.469"/><path fill="#9810FA" d="M267 432h1l.031 2.081q.163 10.682.341 21.363.065 3.99.125 7.982.088 5.723.187 11.445l.05 3.63.06 3.337.048 2.954c-.086 2.182-.086 2.182 1.158 3.208a85 85 0 0 1 .114 4.979v3.215l-.016 3.497-.005 3.56c-.005 3.771-.018 7.541-.03 11.312q-.008 3.822-.014 7.646-.017 9.395-.049 18.791h-2c-.83-26.231-1.093-52.445-1.062-78.687l.002-2.28q.018-14.017.06-28.033"/><path fill="#9810FA" d="M400 219c2.277 3.415 2.294 4.848 2.414 8.875l.117 3.484.094 3.641.117 3.64c.13 4.121.258 8.237.258 12.36l-3-1z"/><path fill="#9810FA" d="M723 310c3.593 3.593 2.822 9.119 3 14-.025 4.425-.21 8.832-.437 13.25l-.159 3.45q-.191 4.15-.404 8.3h-1q-.217-5.92-.427-11.84-.107-2.987-.218-5.973c-.25-7.066-.43-14.116-.355-21.187"/><path fill="#9810FA" d="m392 211-1 2-2.875-.875c-5.578-.84-9.766 2.808-14.125 5.875-1.34.992-2.675 1.989-4 3 1.357-4.44 3.134-6.452 7-9 5.193-2.479 9.5-1.904 15-1"/><path fill="#9810FA" d="M372 507c0 3.753-.95 4.363-3.375 7.125-3.71 4.565-4.8 8.095-5.625 13.875h-1c-.71-6.51.557-9.74 4.398-15.012 1.738-2.156 3.526-4.152 5.602-5.988"/><path fill="#9810FA" d="M630 320h17c-2.883 2.883-6.081 2.965-10 3-2.47-.459-4.62-1.157-7-2z"/><path fill="#9810FA" d="M380 320h14c-2.65 2.65-4.295 2.65-8 3-2.342-.264-4.68-.582-7-1z"/><path fill="#9810FA" d="M589 459h2l-2 5h-2l-2 7h-1c.411-5.241 1.24-8.24 5-12"/><path fill="#9810FA" d="m441 439 2 1-8 8-3-1h2l.688-1.75c1.642-2.816 3.707-4.33 6.312-6.25"/><path fill="#9810FA" d="m753 744 2 1-1 9h-2z"/><path fill="#9810FA" d="m526 289 3 1v6h-3z"/><path fill="#9810FA" d="m444 249 3 1Z"/><path fill="#42B7EF" d="m340 249 3 1Z"/><path fill="#9810FA" d="m700 799 2 1ZM696 799l2 1Z"/><path fill="#9810FA" d="m317 799 2 1Z"/><path fill="#9810FA" d="m560 287 2 1Z"/><path fill="#9810FA" d="m536 287 2 1Z"/><path fill="#9810FA" d="m488 287 2 1Z"/><path fill="#9810FA" d="m325 287 2 1Z"/><path fill="#9810FA" d="m705 250 2 1Z"/><path fill="#9810FA" d="m692 249 2 1Z"/><path fill="#9810FA" d="m678 249 2 1Z"/><path fill="#9810FA" d="m604 249 2 1Z"/><path fill="#9810FA" d="m436 249 2 1Z"/><path fill="#9810FA" d="m420 249 2 1Z"/><path fill="#9810FA" d="m404 249 2 1Z"/></svg>