<?xml version="1.0" encoding="UTF-8"?>
<svg version="1.1" xmlns="http://www.w3.org/2000/svg" width="1024" height="1024">
<path d="M0 0 C4.11610745 3.6374903 6.34168435 6.90056956 7.10083008 12.33251953 C7.30437041 15.76710416 7.39573047 19.18470974 7.4375 22.625 C7.46714844 23.80835938 7.49679687 24.99171875 7.52734375 26.2109375 C7.62433706 30.26618164 7.6875 34.31860685 7.6875 38.375 C38.0475 38.375 68.4075 38.375 99.6875 38.375 C99.6875 29.135 99.6875 19.895 99.6875 10.375 C102.61184112 4.52631776 105.23989879 -0.1308157 111.67578125 -2.29296875 C116.97927862 -3.16830327 121.85633575 -2.47339229 126.38671875 0.484375 C130.18938103 3.46757737 132.36677587 6.02325696 133.0222168 10.8293457 C133.06000244 11.72741943 133.09778809 12.62549316 133.13671875 13.55078125 C133.17990234 14.54400391 133.22308594 15.53722656 133.26757812 16.56054688 C133.32075195 18.10838867 133.32075195 18.10838867 133.375 19.6875 C133.44557617 21.21793945 133.44557617 21.21793945 133.51757812 22.77929688 C133.73431179 28.27580472 133.48018148 32.82622967 132.6875 38.375 C163.3775 38.375 194.0675 38.375 225.6875 38.375 C225.6875 30.455 225.6875 22.535 225.6875 14.375 C228.12012411 4.64450355 228.12012411 4.64450355 232.6875 0.375 C237.3659201 -2.42388015 242.06753292 -3.2420572 247.44140625 -2.39453125 C251.6940535 -0.93753732 254.94054645 1.8639059 257.6875 5.375 C259.4083431 9.67768611 259.92679356 13.2491765 259.8828125 17.8671875 C259.87636719 19.06601563 259.86992188 20.26484375 259.86328125 21.5 C259.84652344 22.7375 259.82976562 23.975 259.8125 25.25 C259.80347656 26.51070312 259.79445313 27.77140625 259.78515625 29.0703125 C259.76165808 32.1720704 259.72880334 35.27343652 259.6875 38.375 C260.27028717 38.36611755 260.85307434 38.35723511 261.45352173 38.3480835 C267.58675198 38.25874325 273.71979381 38.19891119 279.85351562 38.15527344 C282.13451664 38.13530985 284.41546749 38.10812921 286.69628906 38.07324219 C307.91565714 37.75709034 326.57858108 39.98394735 342.6875 55.375 C357.39081635 72.01103181 361.15652787 89.99774192 361.07518005 111.45881653 C361.07935958 113.26529908 361.08484048 115.071779 361.09149987 116.87825412 C361.10589201 121.81193502 361.10172931 126.74544798 361.09433305 131.67913783 C361.08958818 137.01193261 361.10212291 142.34469175 361.11235046 147.67747498 C361.12951822 158.11326059 361.13038263 168.54898595 361.12513756 178.98478202 C361.12109071 187.47022981 361.12254554 195.95565984 361.12788582 204.4411068 C361.12863424 205.65033408 361.12938266 206.85956137 361.13015376 208.10543191 C361.1316853 210.56224627 361.13322364 213.01906063 361.13476873 215.47587498 C361.14848656 238.49891549 361.14306121 261.52192199 361.13158352 284.54496171 C361.12165286 305.58837017 361.13459024 326.63169069 361.15851771 347.67508558 C361.18292489 369.30402089 361.19251253 390.93291527 361.18586498 412.56186408 C361.18237625 424.69621983 361.184582 436.83050797 361.20211601 448.96485329 C361.21685825 459.29494736 361.217447 469.62492621 361.2000451 479.95501808 C361.19154928 485.22083065 361.18935091 490.48643754 361.20469666 495.75223923 C361.21859598 500.58167898 361.2137135 505.41073788 361.19445742 510.2401559 C361.19071313 511.97826282 361.19357355 513.71640064 361.20406907 515.45447991 C361.30769896 533.94467765 358.11590711 552.40171938 344.8828125 566.40625 C326.3667981 583.011359 306.94258888 586.5374396 282.73580933 586.50871277 C281.23302915 586.5105837 279.73024945 586.51288553 278.22747052 586.51557809 C274.11937379 586.52166766 270.0112975 586.52156586 265.90319729 586.52038372 C261.46403124 586.52017899 257.02487164 586.52570539 252.58570862 586.53044128 C243.89613405 586.53873301 235.20656627 586.54149546 226.51698808 586.54205366 C219.44976155 586.54252957 212.38253726 586.54458802 205.31531143 586.54775429 C185.25724452 586.55655716 165.19918296 586.56117429 145.1411141 586.56042381 C144.06071832 586.56038386 142.98032254 586.5603439 141.8671875 586.56030273 C140.78546509 586.56026185 139.70374268 586.56022097 138.5892408 586.56017885 C121.06668987 586.55977258 103.54416044 586.56933828 86.02161573 586.5834411 C68.00882269 586.59782353 49.99604013 586.60471024 31.9832412 586.60384732 C21.8788316 586.60351598 11.77444454 586.6062356 1.67004013 586.61702538 C-6.93451116 586.626155 -15.53902968 586.62828549 -24.14358373 586.62151595 C-28.52833528 586.61826303 -32.91302406 586.61814938 -37.29776955 586.6268692 C-41.32229902 586.63478989 -45.34671653 586.63324664 -49.37124346 586.62458507 C-50.81671142 586.62306223 -52.26218797 586.62481958 -53.70764579 586.63044515 C-74.00720708 586.70413081 -91.05945025 584.4764167 -107.3125 571.375 C-108.14910156 570.74335937 -108.98570312 570.11171875 -109.84765625 569.4609375 C-119.71240532 561.11263955 -126.28860232 548.06944999 -128.3125 535.375 C-128.40626558 532.86295443 -128.4520833 530.37912892 -128.44672108 527.86754799 C-128.45024942 526.7411782 -128.45024942 526.7411782 -128.45384905 525.59205347 C-128.46052335 523.06759021 -128.4600813 520.54317861 -128.45967102 518.01870728 C-128.46297063 516.19367023 -128.46669641 514.36863392 -128.4708125 512.54359853 C-128.48082975 507.52155462 -128.48454886 502.49952265 -128.48720181 497.47747016 C-128.49110574 492.06344581 -128.5006841 486.64943091 -128.50941467 481.2354126 C-128.52917777 468.15610921 -128.53924563 455.07680505 -128.54814246 441.99749047 C-128.55252608 435.83695333 -128.55789275 429.67641705 -128.56313133 423.51588058 C-128.58014434 403.03401938 -128.59463785 382.55215871 -128.60188007 362.07029152 C-128.60378995 356.75503158 -128.60571028 351.43977164 -128.60766602 346.12451172 C-128.60790617 345.46417738 -128.60814632 344.80384304 -128.60839374 344.12349857 C-128.61652693 322.06230758 -128.64174869 300.00117952 -128.67524669 277.94001324 C-128.7083322 255.97121032 -128.72633023 234.00243581 -128.72952431 212.03360784 C-128.73168815 199.70074136 -128.74041823 187.36795647 -128.76598549 175.03511429 C-128.78771292 164.53023816 -128.79573285 154.02546342 -128.78601871 143.52056737 C-128.78147982 138.16379021 -128.78333644 132.80722215 -128.80278015 127.45047379 C-128.82045398 122.53874696 -128.81937986 117.62738113 -128.80388286 112.71565025 C-128.80151318 110.94636111 -128.80579682 109.1770467 -128.81771151 107.4077961 C-128.94664207 86.98410253 -124.15740013 69.67961809 -109.65234375 54.5546875 C-96.85823159 42.63629921 -81.87831367 38.00689891 -64.71484375 38.1796875 C-63.10253624 38.18393234 -63.10253624 38.18393234 -61.45765686 38.18826294 C-58.05498698 38.19937726 -54.65258911 38.22446553 -51.25 38.25 C-48.93034237 38.26004111 -46.61068057 38.26916497 -44.29101562 38.27734375 C-38.63141903 38.29928788 -32.97197896 38.33267735 -27.3125 38.375 C-27.30839111 37.50286865 -27.30428223 36.6307373 -27.30004883 35.73217773 C-27.2729325 32.46802289 -27.22371115 29.20570478 -27.15991211 25.94213867 C-27.13684473 24.53502829 -27.12236296 23.127748 -27.11694336 21.72045898 C-27.04939455 7.0623674 -27.04939455 7.0623674 -21.3125 1.375 C-14.55964154 -3.65267564 -7.35035862 -3.6058363 0 0 Z M-91.5 86.125 C-96.54154935 95.16501952 -95.59492912 105.62280099 -95.56646729 115.6519928 C-95.56877334 117.41947462 -95.57195084 119.18695547 -95.57592177 120.95443434 C-95.58425836 125.79855507 -95.58014965 130.64259683 -95.57394934 135.48671782 C-95.56942126 140.71580576 -95.57641036 145.9448802 -95.58190918 151.17396545 C-95.59080081 161.41242611 -95.58888224 171.65085744 -95.5830839 181.88931925 C-95.57856677 190.20997726 -95.57795473 198.53062705 -95.58013153 206.85128593 C-95.580438 208.03561135 -95.58074446 209.21993677 -95.58106022 210.44015084 C-95.58169967 212.84608718 -95.58234809 215.25202353 -95.5830054 217.65795987 C-95.58870796 240.21624122 -95.58215183 262.77450632 -95.57140467 285.332785 C-95.56246807 304.69004515 -95.56402224 324.0472813 -95.57324219 343.40454102 C-95.58394413 365.88377144 -95.58815986 388.36298763 -95.58201766 410.84222025 C-95.58138056 413.23899011 -95.58075182 415.63575997 -95.58013153 418.03252983 C-95.57982298 419.21178844 -95.57951443 420.39104705 -95.57919653 421.60604076 C-95.57746945 429.91749463 -95.58038495 438.22893946 -95.58509064 446.54039192 C-95.59069856 456.66803227 -95.58918481 466.79564161 -95.57852915 476.9232784 C-95.57327146 482.09080434 -95.57121743 487.25827858 -95.57782745 492.42580414 C-95.58378684 497.15619763 -95.58051189 501.88649149 -95.56987235 506.61687594 C-95.56763831 508.32804246 -95.5687747 510.03921739 -95.57362393 511.7503785 C-95.57971294 514.0775459 -95.57345976 516.40437283 -95.56418228 518.73152256 C-95.56385758 520.02376855 -95.56353287 521.31601455 -95.56319833 522.64741951 C-94.87375154 532.89865823 -91.24938771 540.01157996 -83.703125 546.796875 C-75.60824354 552.14055492 -67.33867078 551.80782699 -58.00494385 551.77613831 C-56.43916257 551.78174737 -54.8733855 551.78865138 -53.30761504 551.79673427 C-49.01621069 551.81504929 -44.724982 551.81469216 -40.4335475 551.81115115 C-35.80080443 551.81053813 -31.16811729 551.82710484 -26.53540039 551.84132385 C-17.46320734 551.86622375 -8.39107277 551.87448748 0.6811516 551.87616099 C8.05691561 551.8775874 15.43266036 551.88375631 22.80841827 551.89326286 C43.7286357 551.91967725 64.648807 551.93352182 85.56904122 551.93127144 C86.69642363 551.93115157 87.82380605 551.9310317 88.98535156 551.9309082 C90.67849438 551.93072424 90.67849438 551.93072424 92.4058421 551.93053656 C110.69757621 551.9293173 128.98912503 551.95802417 147.28080556 552.0003233 C166.07097618 552.04343168 184.86105646 552.06413292 203.65127778 552.06154197 C214.19720172 552.06054665 224.74293138 552.06876197 235.28881073 552.10107613 C244.26799662 552.12841378 253.24690019 552.13489865 262.22610971 552.11454786 C266.80495212 552.10476323 271.3832531 552.10454052 275.96204376 552.1306076 C280.15944241 552.15425707 284.35587197 552.14985623 288.55324748 552.12375521 C290.06600223 552.11916185 291.57882993 552.12455529 293.09149858 552.14133544 C303.54416677 552.24954416 312.62716827 550.77507642 320.71287894 543.57028013 C330.84888294 532.803486 328.83555455 517.17216717 328.82121277 503.44282532 C328.82308353 501.73706693 328.82538529 500.03130897 328.82807809 498.32555169 C328.83416966 493.66103787 328.83406562 488.99654205 328.83288372 484.33202517 C328.83267904 479.29232613 328.83820484 474.25263277 328.84294128 469.2129364 C328.85123386 459.34773125 328.85399549 449.48253208 328.85455366 439.61732373 C328.85502948 431.59522024 328.8570875 423.57311872 328.86025429 415.55101585 C328.86905702 392.78731834 328.87367425 370.02362553 328.87292381 347.2599263 C328.87288386 346.03373314 328.8728439 344.80753998 328.87280273 343.54418945 C328.87276185 342.31649242 328.87272097 341.08879539 328.87267885 339.82389542 C328.87227248 319.93142722 328.88184084 300.03897795 328.8959411 280.14651523 C328.91031795 259.70190403 328.91721057 239.25730205 328.91634732 218.81268567 C328.91601581 207.34230734 328.91874294 195.87194886 328.92952538 184.40157509 C328.93864759 174.63506902 328.9407915 164.8685918 328.93401595 155.1020833 C328.93075945 150.12392446 328.93066252 145.14582092 328.9393692 140.16766739 C328.9472737 135.60100838 328.94576276 131.03444818 328.93708507 126.46779146 C328.93555874 124.82518114 328.93733313 123.1825633 328.94294515 121.53996185 C329.85421346 100.52238718 329.85421346 100.52238718 321.6875 82.375 C313.54881297 74.85197011 306.93143507 73.06439395 296.0390625 73.1796875 C295.02653412 73.1825174 294.01400574 73.18534729 292.97079468 73.18826294 C289.75124062 73.19941746 286.53196935 73.22451354 283.3125 73.25 C281.12370195 73.2600359 278.93489951 73.26916069 276.74609375 73.27734375 C271.39313342 73.2993413 266.04033692 73.33277176 260.6875 73.375 C259.47708701 75.79582599 259.54690964 77.39819358 259.51171875 80.1015625 C259.48787109 81.05160156 259.46402344 82.00164062 259.43945312 82.98046875 C259.39698909 84.96984433 259.36546866 86.95948818 259.34570312 88.94921875 C259.16417041 95.22265168 258.32343284 100.14705095 254.6875 105.375 C250.93055512 108.61014698 246.58238609 109.51485389 241.6875 109.375 C237.14566149 108.53834554 233.70561431 107.28869233 230.25 104.1875 C225.02496319 94.78243375 226.20780806 83.78116126 225.6875 73.375 C194.9975 73.375 164.3075 73.375 132.6875 73.375 C132.6875 77.995 132.6875 82.615 132.6875 87.375 C132.18248328 100.50543478 132.18248328 100.50543478 127.6875 105.375 C123.8078523 108.50027176 119.62064784 109.51594708 114.6875 109.375 C109.96042045 108.50422219 106.61347473 107.30097473 103.1875 103.875 C97.46310289 94.33433815 100.20673654 86.35591357 99.6875 73.375 C68.9975 73.375 38.3075 73.375 6.6875 73.375 C6.3575 81.955 6.0275 90.535 5.6875 99.375 C-0.14079103 107.53460744 -0.14079103 107.53460744 -5.83984375 109.06640625 C-10.26632274 109.61884202 -14.16549694 108.98450119 -18.3125 107.375 C-22.70431597 103.89814569 -24.87985373 100.79968667 -25.85546875 95.33203125 C-26.3750542 90.83339826 -26.42236674 86.45920209 -26.375 81.9375 C-26.37048828 81.11056641 -26.36597656 80.28363281 -26.36132812 79.43164062 C-26.34965811 77.41272854 -26.33172718 75.39385426 -26.3125 73.375 C-32.96512205 73.24745873 -39.61742492 73.16034009 -46.27099609 73.1003418 C-48.53088157 73.07531091 -50.79068702 73.04127562 -53.05029297 72.99780273 C-56.31237619 72.93664767 -59.57338245 72.90867498 -62.8359375 72.88671875 C-63.83426605 72.86091232 -64.8325946 72.8351059 -65.86117554 72.80851746 C-77.11367976 72.80409194 -84.59133764 77.43982446 -91.5 86.125 Z " fill="#4E75FC" transform="translate(395.3125,212.625)"/>
<path d="M0 0 C3.50650078 2.84903188 6.70973516 5.85001511 7.3359375 10.48828125 C7.35527344 11.88626953 7.35527344 11.88626953 7.375 13.3125 C7.40335937 14.23675781 7.43171875 15.16101563 7.4609375 16.11328125 C6.48713985 22.21189537 1.80261545 26.48284751 -2.46484375 30.66015625 C-2.98003067 31.17251328 -3.49521759 31.6848703 -4.02601624 32.2127533 C-5.65849524 33.83414182 -7.29780061 35.44841714 -8.9375 37.0625 C-10.03366836 38.1486192 -11.12937559 39.23520401 -12.22460938 40.32226562 C-14.24447523 42.32589662 -16.26701433 44.32674163 -18.29272461 46.32446289 C-20.09164968 48.10229857 -21.88035283 49.89053967 -23.65844727 51.68920898 C-26 54 -26 54 -29.0625 56.5 C-32.00474465 58.84382205 -32.00474465 58.84382205 -34 61.5 C-36.36695149 64.45868936 -39.06835 66.60681632 -42 69 C-43.68933922 70.6436814 -45.35259924 72.3142876 -47 74 C-48.60281237 75.60551982 -50.20707959 77.20958806 -51.8125 78.8125 C-52.99779297 79.99779297 -52.99779297 79.99779297 -54.20703125 81.20703125 C-54.79871094 81.79871094 -55.39039063 82.39039063 -56 83 C-54.84561881 86.46314356 -53.71563679 87.29393327 -50.9375 89.5625 C-49.58840481 90.66501188 -48.26611103 91.80310688 -47 93 C-47 93.66 -47 94.32 -47 95 C-46.443125 95.226875 -45.88625 95.45375 -45.3125 95.6875 C-42.34144815 97.37377267 -40.35477875 99.530354 -38 102 C-36.7315625 103.2375 -36.7315625 103.2375 -35.4375 104.5 C-33 107 -33 107 -31.1875 109.375 C-28.68840675 112.3739119 -25.91464368 114.76959114 -22.95703125 117.3046875 C-19.73074534 120.09951401 -16.77855097 122.97982976 -14.1875 126.375 C-11.74438014 129.30674383 -9.0497778 131.6263355 -6.16015625 134.10546875 C5.52035116 144.34967507 5.52035116 144.34967507 7.875 151.75 C8.10242691 157.66309978 6.32683126 162.35891923 2.625 166.9375 C-2.14542467 170.68569081 -5.93053487 171.61723374 -12 171 C-18.40735862 168.69639591 -22.86935082 164.70231296 -27.57763672 159.92407227 C-28.287603 159.21950897 -28.99756927 158.51494568 -29.72904968 157.78903198 C-32.05591889 155.47459574 -34.36805928 153.14605738 -36.6796875 150.81640625 C-38.29948312 149.1967657 -39.91994643 147.57779267 -41.54104614 145.9594574 C-44.92796097 142.57392399 -48.30782048 139.18154772 -51.68261719 135.78393555 C-56.00845738 131.42965532 -60.34974789 127.0911767 -64.69618034 122.7574625 C-68.04064375 119.41995179 -71.37770053 116.0751157 -74.71246719 112.72791862 C-76.31079497 111.12507642 -77.91121584 109.5243186 -79.51375961 107.9256916 C-81.74952887 105.69283183 -83.97535487 103.45051434 -86.19873047 101.20532227 C-86.86157547 100.54697891 -87.52442047 99.88863556 -88.20735168 99.21034241 C-92.58716204 94.75887879 -94.65834515 91.56241134 -95.5 85.25 C-95.1965905 75.76459509 -85.54185407 68.11332325 -79.296875 61.93359375 C-78.37787415 61.01409439 -77.45887329 60.09459503 -76.51202393 59.14723206 C-74.58366062 57.21895769 -72.65030826 55.29588489 -70.71289062 53.37670898 C-68.22710002 50.91381139 -65.75276146 48.43976554 -63.28174973 45.96205044 C-60.9169922 43.59316239 -58.54424661 41.23235719 -56.171875 38.87109375 C-55.28232117 37.98062851 -54.39276733 37.09016327 -53.47625732 36.17271423 C-52.65490295 35.36089188 -51.83354858 34.54906952 -50.98730469 33.71264648 C-50.26371765 32.99366684 -49.54013062 32.27468719 -48.7946167 31.53392029 C-47 30 -47 30 -45 30 C-44.7525 29.38125 -44.505 28.7625 -44.25 28.125 C-42.76259631 25.59641373 -41.56321991 25.28160996 -39 24 C-38.7009375 23.38253906 -38.401875 22.76507813 -38.09375 22.12890625 C-36.86342384 19.73416426 -35.59528556 18.60218662 -33.5 16.9375 C-31.06335088 14.99127814 -29.77737879 13.66606818 -28 11 C-27.34 11 -26.68 11 -26 11 C-25.67 10.01 -25.34 9.02 -25 8 C-24.34 8 -23.68 8 -23 8 C-22.7215625 7.1646875 -22.7215625 7.1646875 -22.4375 6.3125 C-20.07182942 2.50685603 -16.30477558 -0.17854231 -12.08203125 -1.68359375 C-7.93293082 -2.31413246 -3.94039652 -1.30920792 0 0 Z " fill="#3789FB" transform="translate(457,439)"/>
<path d="M0 0 C4.69572492 3.01792658 6.7878803 6.61598101 8.375 11.9375 C8.66515139 15.71387092 7.70004284 18.44104373 6.30078125 21.93359375 C5.8421167 23.08722412 5.38345215 24.24085449 4.91088867 25.42944336 C4.37844458 26.7447715 3.84562871 28.05994919 3.3125 29.375 C2.72400713 30.84043241 2.13588847 32.30601515 1.5480957 33.77172852 C-0.47716413 38.81087153 -2.51962615 43.84297814 -4.5625 48.875 C-5.31976765 50.74279549 -6.07692723 52.6106348 -6.83398438 54.47851562 C-8.75387319 59.21474887 -10.67503574 63.95046426 -12.59655762 68.68603516 C-14.24482961 72.74871117 -15.89200641 76.81183092 -17.5390625 80.875 C-19.37120428 85.39473289 -21.20342066 89.91443525 -23.03637695 94.43383789 C-26.23782728 102.32799964 -29.43607935 110.22343993 -32.62890625 118.12109375 C-36.5565628 127.83617699 -40.48940223 137.54915203 -44.42553711 147.26080322 C-45.79131946 150.63119947 -47.15637916 154.00188803 -48.52148438 157.37255859 C-51.0175664 163.53440953 -53.51753593 169.69466844 -56.01974487 175.85403442 C-56.99949039 178.26721195 -57.9781244 180.68084107 -58.95559692 183.09494019 C-60.328027 186.483811 -61.70455335 189.87099092 -63.08203125 193.2578125 C-63.48862976 194.26434372 -63.89522827 195.27087494 -64.31414795 196.3079071 C-71.01280418 212.73737448 -71.01280418 212.73737448 -76.6875 216.375 C-81.04000507 217.82583502 -85.26863755 218.22842929 -89.625 216.69140625 C-93.95937068 214.44014907 -96.47208673 211.80582655 -98.6875 207.375 C-99.91517798 201.38541956 -99.53723895 197.50619406 -97.06640625 191.87109375 C-96.77584351 191.16788498 -96.48528076 190.46467621 -96.18591309 189.74015808 C-95.22413447 187.42348315 -94.23712924 185.11847317 -93.25 182.8125 C-92.56188156 181.16727192 -91.87563819 179.52125848 -91.19116211 177.87451172 C-89.75711493 174.43041038 -88.31376039 170.99043487 -86.86328125 167.55322266 C-84.77386247 162.59352287 -82.72328541 157.61864048 -80.6875 152.63671875 C-80.36298355 151.84261597 -80.0384671 151.04851318 -79.70411682 150.23034668 C-79.04873152 148.62608537 -78.39346315 147.02177629 -77.73831177 145.41741943 C-76.0691675 141.33467761 -74.39186056 137.25529423 -72.71484375 133.17578125 C-72.04148186 131.5372812 -71.36814197 129.8987721 -70.69482422 128.26025391 C-70.36262878 127.45187073 -70.03043335 126.64348755 -69.68817139 125.81060791 C-66.72727569 118.60386543 -63.77000846 111.39563301 -60.8125 104.1875 C-60.48647797 103.3930246 -60.16045593 102.59854919 -59.82455444 101.77999878 C-55.54986888 91.36272989 -51.28139319 80.94294041 -47.02076721 70.51991272 C-45.11151231 65.84926672 -43.20094999 61.17916706 -41.28686523 56.51049805 C-38.03834806 48.58471466 -34.79400918 40.65781719 -31.6027832 32.70875549 C-30.33078308 29.54301536 -29.05085512 26.38051406 -27.76983643 23.21841431 C-27.18164223 21.76020543 -26.59733427 20.30042184 -26.01727295 18.83895874 C-25.22323684 16.83900699 -24.41589278 14.84491845 -23.60546875 12.8515625 C-22.93680786 11.182146 -22.93680786 11.182146 -22.25463867 9.47900391 C-20.08508275 5.18180278 -17.56017243 1.45917877 -13.3125 -1 C-8.45916128 -2.15555684 -4.48170461 -2.30323149 0 0 Z " fill="#486CFD" transform="translate(575.6875,418.625)"/>
<path d="M0 0 C3.61311723 2.91609855 6.94233797 6.12157937 10.25 9.375 C10.74338867 9.85888184 11.23677734 10.34276367 11.74511719 10.84130859 C15.25 14.37967755 15.25 14.37967755 15.25 16.625 C16.12802528 17.01603157 16.12802528 17.01603157 17.02378845 17.41496277 C19.39324608 18.70286012 20.96337573 20.08460922 22.86938477 21.9855957 C23.56012589 22.6700325 24.250867 23.3544693 24.96253967 24.05964661 C25.69806564 24.79922104 26.43359161 25.53879547 27.19140625 26.30078125 C27.95549301 27.06295456 28.71957977 27.82512787 29.50682068 28.61039734 C31.12053361 30.22275013 32.73172699 31.83762798 34.34057617 33.45483398 C36.79973253 35.92467704 39.26933975 38.38370353 41.74023438 40.84179688 C43.30793319 42.41081761 44.87501133 43.9804588 46.44140625 45.55078125 C47.54773155 46.65103386 47.54773155 46.65103386 48.67640686 47.77351379 C54.16790007 53.31535705 57.83078339 57.52014551 58.25 65.625 C56.99477748 76.71279891 44.63713087 85.37957141 37.140625 92.83203125 C36.21078796 93.76045334 35.28095093 94.68887543 34.32293701 95.64543152 C31.88094952 98.08365149 29.43597639 100.51885473 26.99029541 102.95336914 C24.50341375 105.42996391 22.01940491 107.90943647 19.53515625 110.38867188 C15.89899897 114.01692591 12.26133507 117.64366145 8.62207031 121.26879883 C2.77924715 127.07173013 2.77924715 127.07173013 -2.99609375 132.94140625 C-13.57433227 143.78362933 -13.57433227 143.78362933 -21.25 144.125 C-26.1707651 143.92469749 -29.05010527 143.05417072 -32.75 139.625 C-35.88338073 135.72944558 -37.5449121 132.64965363 -37.75 127.625 C-36.61345372 122.10306769 -34.91272552 119.17009876 -30.9206543 115.22802734 C-30.43096161 114.73760452 -29.94126892 114.2471817 -29.43673706 113.74189758 C-27.82747075 112.13609237 -26.20126693 110.54870562 -24.57421875 108.9609375 C-23.4445297 107.84058881 -22.31595054 106.71911998 -21.18843079 105.59658813 C-18.22403096 102.65121978 -15.24494156 99.72116175 -12.26245117 96.79412842 C-9.23958005 93.82231248 -6.2307035 90.83640399 -3.22070312 87.8515625 C2.08378891 82.59483221 7.40037942 77.35061767 12.72602844 72.11532593 C15.24528605 69.62965111 17.75033686 67.13036537 20.25 64.625 C18.79777458 61.28104758 16.97201785 59.11297155 14.3828125 56.5625 C13.58858887 55.77488281 12.79436523 54.98726562 11.97607422 54.17578125 C11.11771973 53.33402344 10.25936523 52.49226563 9.375 51.625 C8.49473145 50.75230469 7.61446289 49.87960937 6.70751953 48.98046875 C3.89308891 46.19048541 1.07253985 43.40677249 -1.75 40.625 C-5.46430974 36.9643379 -9.17151904 33.29661868 -12.875 29.625 C-13.73335449 28.78324219 -14.59170898 27.94148438 -15.47607422 27.07421875 C-16.27029785 26.28660156 -17.06452148 25.49898438 -17.8828125 24.6875 C-18.93299561 23.65302734 -18.93299561 23.65302734 -20.00439453 22.59765625 C-23.79547051 18.31347528 -24.18943975 14.6669728 -24.06640625 9.09765625 C-23.59544597 5.41718886 -22.2108062 3.3518393 -19.75 0.625 C-13.30360685 -4.04863504 -6.74244656 -4.79432163 0 0 Z " fill="#6A55FE" transform="translate(607.75,459.375)"/>
<path d="M0 0 C3.5922138 3.5922138 2.81887245 9.11959943 3 14 C2.97630574 18.31053001 2.7801855 22.60513209 2.5703125 26.91015625 C1.90077517 43.14072619 1.84627338 59.3532031 1.86962891 75.59545898 C1.87535953 79.64792786 1.8719307 83.70033139 1.86616135 87.75279808 C1.77966073 109.7946338 1.77966073 109.7946338 2.73849487 131.80967712 C3.02838711 136.40619498 2.90675136 140.82373874 2.53515625 145.41699219 C1.83341155 154.25418831 1.8552652 163.05913022 1.8671875 171.91796875 C1.86651181 173.71006788 1.86553959 175.50216692 1.86428833 177.29426575 C1.86282496 181.02488082 1.86492248 184.75547174 1.86962891 188.48608398 C1.87533786 193.23991146 1.87203111 197.99368261 1.86605644 202.74750805 C1.86242451 206.43919796 1.86360125 210.13087475 1.86618423 213.82256508 C1.86684558 215.57464925 1.86605317 217.32673465 1.86370468 219.07881737 C1.78566276 229.76332191 1.78566276 229.76332191 2.57080078 240.4074707 C3.08739124 245.23542956 2.8644957 249.88109216 2.57080078 254.7121582 C1.76009812 268.26482448 1.8534366 281.82457052 1.8656745 295.39578032 C1.86824764 299.15377224 1.86584756 302.91176199 1.86428833 306.66975403 C1.86248331 312.96221362 1.86483128 319.25466136 1.86962891 325.54711914 C1.87509446 332.79893025 1.87328559 340.05071333 1.8678025 347.30252379 C1.86325462 353.57138342 1.86262824 359.84023465 1.86524117 366.10909539 C1.86679139 369.83536604 1.86703186 373.56162352 1.86370468 377.2878933 C1.86026076 381.43177311 1.865043 385.57560491 1.87060547 389.71948242 C1.86858124 390.93675522 1.86655701 392.15402802 1.86447144 393.40818787 C1.88008172 399.69813011 2.22826831 405.75994319 3 412 C2.9224583 414.52385723 2.78229779 417.04703643 2.5625 419.5625 C2.46066406 420.78066406 2.35882812 421.99882813 2.25390625 423.25390625 C2.17011719 424.16011719 2.08632813 425.06632812 2 426 C1.34 426 0.68 426 0 426 C0 285.42 0 144.84 0 0 Z " fill="#7857F8" transform="translate(723,310)"/>
<path d="M0 0 C124.08 0 248.16 0 376 0 C375.67 0.66 375.34 1.32 375 2 C354.7337942 2.76592356 334.50542613 3.14994279 314.22265625 3.1328125 C312.1119368 3.13320902 310.0012186 3.13434135 307.89049947 3.13556135 C300.32343827 3.13989738 292.75639616 3.13701945 285.18933713 3.13056505 C279.60175943 3.12584966 274.01418472 3.12350339 268.42660522 3.12231445 C209.21686232 3.10732696 150.00963296 2.79430431 90.80150962 2.37377667 C88.30628811 2.35606371 85.81106591 2.33844987 83.31584358 2.32085228 C76.36719079 2.27172368 69.41854426 2.22221612 62.46992433 2.1686157 C59.68588092 2.14733416 56.9018308 2.1270349 54.11777902 2.10688281 C52.11201511 2.09199586 50.1062612 2.07578159 48.10050774 2.05954933 C40.97262824 2.00827278 33.84829453 2.00514403 26.72055054 2.05688477 C25.18345326 2.06572573 23.64635501 2.07439727 22.10925579 2.08289337 C19.17784027 2.0991119 16.24693598 2.12826673 13.31570911 2.16460419 C11.35311665 2.17599804 11.35311665 2.17599804 9.35087585 2.18762207 C8.19422771 2.19948799 7.03757956 2.21135391 5.84588146 2.22357941 C3 2 3 2 0 0 Z " fill="#5D61F5" transform="translate(325,764)"/>
<path d="M0 0 C0 0.33 0 0.66 0 1 C-1.04800781 1.18175781 -1.04800781 1.18175781 -2.1171875 1.3671875 C-3.02726562 1.53476563 -3.93734375 1.70234375 -4.875 1.875 C-5.77992188 2.03742188 -6.68484375 2.19984375 -7.6171875 2.3671875 C-10.16505988 2.83044703 -10.16505988 2.83044703 -12 5 C-12.99 5 -13.98 5 -15 5 C-24.79689865 6.8369185 -34.36249853 13.69419174 -41 21 C-42.447741 23.19342677 -43.66873626 25.39997252 -44.84375 27.75 C-45.97760069 29.95641216 -47.27543833 31.90150411 -48.6875 33.9375 C-51.04534628 37.63637135 -51.89029947 41.09967015 -52.54296875 45.41015625 C-53 48 -53 48 -54.01353264 51.05165958 C-55.32594123 55.61475443 -55.27125815 60.04466942 -55.24050903 64.76329041 C-55.24221788 65.72890618 -55.24392673 66.69452196 -55.24568737 67.68939883 C-55.24897376 70.91532321 -55.23799247 74.14103823 -55.22705078 77.36694336 C-55.22648648 79.68321732 -55.22680359 81.99949163 -55.22793579 84.31576538 C-55.22850958 90.59823972 -55.21675091 96.88063769 -55.20278788 103.16309428 C-55.19028497 109.73076029 -55.18911036 116.29842805 -55.18673706 122.86610413 C-55.18156036 133.88771895 -55.16873499 144.90930703 -55.15087891 155.9309082 C-55.13250953 167.2811672 -55.11835821 178.63141858 -55.10986328 189.98168945 C-55.10933783 190.68179435 -55.10881239 191.38189925 -55.10827102 192.10321944 C-55.10566087 195.6155817 -55.10313347 199.12794401 -55.10064721 202.64030635 C-55.07992742 231.76022244 -55.04456392 260.88011084 -55 290 C-55.66 290 -56.32 290 -57 290 C-57.81310092 260.2942715 -58.18831095 230.6069028 -58.23828125 200.890625 C-58.24235062 198.78743226 -58.24646797 196.68423961 -58.25063133 194.58104706 C-58.26947115 184.73164884 -58.28377275 174.88225735 -58.2922433 165.03284478 C-58.30209727 153.7770182 -58.32871489 142.52138393 -58.36874419 131.26562524 C-58.39895686 122.46204739 -58.41371488 113.65852496 -58.41702431 104.85489631 C-58.41935776 99.63639284 -58.42810336 94.4181002 -58.45348549 89.19965363 C-58.47687997 84.31696003 -58.48095417 79.43461518 -58.47072411 74.55187988 C-58.47023234 72.77464377 -58.47644533 70.99738954 -58.49028015 69.22020721 C-58.64088877 48.71415515 -53.91110674 31.37365403 -39.33984375 16.1796875 C-28.88172817 6.43740287 -14.58869677 -0.7481383 0 0 Z " fill="#31B3F6" transform="translate(325,251)"/>
<path d="M0 0 C0.33 0 0.66 0 1 0 C1.02505615 1.29736084 1.0501123 2.59472168 1.07592773 3.93139648 C1.16981752 8.72658856 1.27008249 13.5216295 1.37231445 18.31665039 C1.41573334 20.39539057 1.45740312 22.47416803 1.49731445 24.55297852 C1.55484921 27.53413145 1.61859119 30.51509549 1.68359375 33.49609375 C1.70030624 34.43150497 1.71701874 35.3669162 1.73423767 36.33067322 C1.75418289 37.19149002 1.77412811 38.05230682 1.79467773 38.93920898 C1.81022202 39.70087875 1.8257663 40.46254852 1.84178162 41.24729919 C1.81379329 43.02735006 1.81379329 43.02735006 3 44 C3.09811773 45.5464647 3.12631897 47.09741387 3.12698364 48.64698792 C3.12980661 49.65483904 3.13262959 50.66269016 3.1355381 51.70108223 C3.13351072 52.81880957 3.13148335 53.9365369 3.12939453 55.08813477 C3.13111853 56.26136229 3.13284252 57.43458981 3.13461876 58.64336967 C3.13823102 61.89245878 3.13727629 65.14150856 3.13419914 68.39059711 C3.13234136 71.13821187 3.13402436 73.88581963 3.13576198 76.63343412 C3.14086475 84.74626516 3.13637647 92.85907288 3.12897491 100.97190094 C3.12550866 104.78128961 3.1232262 108.59067779 3.12139618 112.40006757 C3.08727547 183.26041282 3.08727547 183.26041282 2.6521225 217.88398361 C2.62499265 220.12560743 2.60141925 222.367245 2.57867432 224.60891724 C2.53677283 228.63797357 2.47740119 232.66653567 2.4140625 236.6953125 C2.40250122 237.84085098 2.39093994 238.98638947 2.37902832 240.16664124 C2.3591687 241.18688889 2.33930908 242.20713654 2.31884766 243.25830078 C2.30552399 244.13479279 2.29220032 245.01128479 2.2784729 245.91433716 C2 248 2 248 0 250 C0 167.5 0 85 0 0 Z " fill="#3F83F9" transform="translate(267,498)"/>
<path d="M0 0 C3.5922138 3.5922138 2.81887245 9.11959943 3 14 C2.97630574 18.31053001 2.7801855 22.60513209 2.5703125 26.91015625 C1.90077517 43.14072619 1.84627338 59.3532031 1.86962891 75.59545898 C1.87535948 79.64789573 1.87192391 83.70026719 1.86617184 87.75270176 C1.8257064 110.06826248 1.8257064 110.06826248 2.67807007 132.36448669 C3.6805009 149.47924864 3.6805009 149.47924864 0 155 C0 103.85 0 52.7 0 0 Z " fill="#6C5EF6" transform="translate(723,310)"/>
<path d="M0 0 C1.39513878 0.04402805 2.79222602 0.03951218 4.1875 0 C8.55571062 -0.05728801 12.67946231 0.37155815 17 1 C17.33 0.34 17.66 -0.32 18 -1 C18.85519037 -0.83734146 19.71038074 -0.67468292 20.59148598 -0.50709534 C23.96959989 -0.00452272 27.12325678 0.12026765 30.53622437 0.11352539 C31.83395782 0.1134549 33.13169128 0.1133844 34.46875 0.11331177 C35.89501984 0.1081783 37.32128937 0.10295685 38.74755859 0.09765625 C40.25940909 0.09573557 41.77126022 0.09427248 43.28311157 0.0932312 C46.53405313 0.09007507 49.78496858 0.08381317 53.03590012 0.07516479 C58.19073029 0.06159719 63.3455519 0.05573774 68.50039673 0.05102539 C80.38624814 0.03899342 92.27207724 0.01701985 104.15791321 -0.00520325 C115.02842816 -0.02544807 125.89893515 -0.0435168 136.76946509 -0.05341816 C141.87810893 -0.05835981 146.98671198 -0.06815925 152.09533954 -0.08184814 C155.29736296 -0.08939195 158.49938107 -0.09264017 161.7014122 -0.0948143 C163.16857738 -0.09666164 164.63574175 -0.10021154 166.10289764 -0.10574722 C176.10728546 -0.14225287 186.02598714 0.26854824 196 1 C196 1.33 196 1.66 196 2 C127.36 2 58.72 2 -12 2 C-12 1.67 -12 1.34 -12 1 C-10.56496445 0.63597631 -9.12683494 0.28413409 -7.6875 -0.0625 C-6.88699219 -0.25972656 -6.08648437 -0.45695313 -5.26171875 -0.66015625 C-3 -1 -3 -1 0 0 Z " fill="#6C60F5" transform="translate(497,797)"/>
<path d="M0 0 C0.33 0 0.66 0 1 0 C1.02505615 1.29736084 1.0501123 2.59472168 1.07592773 3.93139648 C1.16981752 8.72658856 1.27008249 13.5216295 1.37231445 18.31665039 C1.41573334 20.39539057 1.45740312 22.47416803 1.49731445 24.55297852 C1.55484921 27.53413145 1.61859119 30.51509549 1.68359375 33.49609375 C1.70030624 34.43150497 1.71701874 35.3669162 1.73423767 36.33067322 C1.75418289 37.19149002 1.77412811 38.05230682 1.79467773 38.93920898 C1.81022202 39.70087875 1.8257663 40.46254852 1.84178162 41.24729919 C1.81379329 43.02735006 1.81379329 43.02735006 3 44 C3.09500548 46.46444057 3.12557985 48.90074626 3.11352539 51.36547852 C3.11367142 52.13615662 3.11381744 52.90683472 3.1139679 53.7008667 C3.1132686 56.26024139 3.10547545 58.8195442 3.09765625 61.37890625 C3.09579213 63.14867615 3.0943682 64.91844656 3.09336853 66.68821716 C3.08954288 71.35551366 3.0797122 76.02277923 3.06866455 80.69006348 C3.05845144 85.44897035 3.05387113 90.20788221 3.04882812 94.96679688 C3.03808997 104.31121153 3.02101299 113.6556032 3 123 C2.01 123.495 2.01 123.495 1 124 C-0.13087406 110.26826694 -0.12946954 96.58253665 -0.09765625 82.8125 C-0.09578717 80.41398142 -0.09436559 78.01546246 -0.09336853 75.61694336 C-0.08958191 69.35684116 -0.07978532 63.09676281 -0.06866455 56.83666992 C-0.05836677 50.42757489 -0.05385312 44.01847595 -0.04882812 37.609375 C-0.03815895 25.07290629 -0.02112983 12.53645514 0 0 Z " fill="#3796F7" transform="translate(267,498)"/>
<path d="M0 0 C2.27650605 3.41475907 2.29406628 4.8480498 2.4140625 8.875 C2.45273437 10.02484375 2.49140625 11.1746875 2.53125 12.359375 C2.57765625 14.16148437 2.57765625 14.16148437 2.625 16 C2.68300781 17.80210937 2.68300781 17.80210937 2.7421875 19.640625 C2.87153602 23.76129922 3 27.87714844 3 32 C33.69 32 64.38 32 96 32 C95.505 32.99 95.505 32.99 95 34 C83.0565685 34.09257782 71.113222 34.16370294 59.16950512 34.20724869 C53.62386106 34.22814586 48.07846201 34.25650254 42.53295898 34.30175781 C37.1837402 34.34513932 31.83475745 34.36912105 26.48537636 34.37950897 C24.44195144 34.38691417 22.39853981 34.40137438 20.35521507 34.42292023 C17.49848636 34.45185182 14.64273971 34.45596029 11.78588867 34.45410156 C10.5116655 34.47567322 10.5116655 34.47567322 9.21170044 34.49768066 C3.50740846 34.45737625 3.50740846 34.45737625 0.97216797 32.17211914 C-0.42210947 29.05687897 -0.33623602 26.4505668 -0.29296875 23.046875 C-0.28872391 22.38665344 -0.28447906 21.72643188 -0.28010559 21.04620361 C-0.26337435 18.94704609 -0.22573551 16.84886504 -0.1875 14.75 C-0.17244584 13.32293058 -0.15875871 11.89584604 -0.14648438 10.46875 C-0.11349001 6.97885183 -0.06174743 3.4895213 0 0 Z " fill="#3193F7" transform="translate(400,219)"/>
<path d="M0 0 C0.33 0 0.66 0 1 0 C1.01030746 0.68682358 1.02061493 1.37364716 1.03123474 2.08128357 C1.13905595 9.20215857 1.25367283 16.32290074 1.37231445 23.44360352 C1.4157418 26.10438265 1.4574109 28.76519107 1.49731445 31.42602539 C1.55482872 35.24113815 1.61857668 39.05610242 1.68359375 42.87109375 C1.70030624 44.06899033 1.71701874 45.2668869 1.73423767 46.50108337 C1.75418289 47.6021492 1.77412811 48.70321503 1.79467773 49.83764648 C1.81022202 50.81249496 1.8257663 51.78734344 1.84178162 52.79173279 C1.75593055 54.97418568 1.75593055 54.97418568 3 56 C3.09346915 57.65738443 3.11744977 59.31874644 3.11352539 60.97875977 C3.11344986 62.03978409 3.11337433 63.10080841 3.11329651 64.19398499 C3.10813522 65.348134 3.10297394 66.50228302 3.09765625 67.69140625 C3.0962413 68.86638168 3.09482635 70.04135712 3.09336853 71.25193787 C3.08774992 75.02215064 3.07519426 78.79230504 3.0625 82.5625 C3.0574874 85.11132727 3.05292408 87.66015547 3.04882812 90.20898438 C3.03777444 96.47267633 3.02101821 102.73633399 3 109 C2.34 109 1.68 109 1 109 C0.16965372 82.76900779 -0.09256829 56.55459795 -0.0625 30.3125 C-0.06164398 29.56009285 -0.06078796 28.8076857 -0.05990601 28.03247833 C-0.04848775 18.68829513 -0.02837116 9.34414821 0 0 Z " fill="#32A3F6" transform="translate(267,432)"/>
<path d="M0 0 C2.27650605 3.41475907 2.29406628 4.8480498 2.4140625 8.875 C2.45273437 10.02484375 2.49140625 11.1746875 2.53125 12.359375 C2.57765625 14.16148437 2.57765625 14.16148437 2.625 16 C2.68300781 17.80210937 2.68300781 17.80210937 2.7421875 19.640625 C2.87153602 23.76129922 3 27.87714844 3 32 C2.01 31.67 1.02 31.34 0 31 C0 20.77 0 10.54 0 0 Z " fill="#33ABF7" transform="translate(400,219)"/>
<path d="M0 0 C3.59304084 3.59304084 2.82170946 9.11886282 3 14 C2.97466781 18.42468947 2.78942311 22.83152006 2.5625 27.25 C2.51029297 28.38824219 2.45808594 29.52648437 2.40429688 30.69921875 C2.27639512 33.46654766 2.14154253 36.2333411 2 39 C1.67 39 1.34 39 1 39 C0.85527413 35.05314076 0.71296953 31.10620179 0.57275391 27.15917969 C0.5015585 25.16857531 0.42853408 23.17803662 0.35546875 21.1875 C0.10565551 14.12135412 -0.07506476 7.07068378 0 0 Z " fill="#655AF8" transform="translate(723,310)"/>
<path d="M0 0 C-0.33 0.66 -0.66 1.32 -1 2 C-1.94875 1.71125 -2.8975 1.4225 -3.875 1.125 C-9.45308789 0.28431058 -13.64085744 3.93326654 -18 7 C-19.33958423 7.99161074 -20.67511991 8.98882715 -22 10 C-20.64319732 5.55955487 -18.86646942 3.54835485 -15 1 C-9.80686193 -1.47854317 -5.49986981 -0.90442303 0 0 Z " fill="#35B0F2" transform="translate(392,211)"/>
<path d="M0 0 C0 3.75291523 -0.94932372 4.36269925 -3.375 7.125 C-7.08572279 11.6903135 -8.17428256 15.2199779 -9 21 C-9.33 21 -9.66 21 -10 21 C-10.71027807 14.48911774 -9.44337058 11.2593876 -5.6015625 5.98828125 C-3.86442833 3.83169274 -2.07595825 1.83642461 0 0 Z " fill="#3B99F6" transform="translate(372,507)"/>
<path d="M0 0 C5.61 0 11.22 0 17 0 C14.11686397 2.88313603 10.91900223 2.96482045 7 3 C4.52992012 2.54120467 2.38017793 1.84297968 0 1 C0 0.67 0 0.34 0 0 Z " fill="#6266F9" transform="translate(630,320)"/>
<path d="M0 0 C4.62 0 9.24 0 14 0 C11.35075864 2.64924136 9.70495205 2.65047622 6 3 C3.65785793 2.7355646 1.31974234 2.41755362 -1 2 C-0.67 1.34 -0.34 0.68 0 0 Z " fill="#37A9F7" transform="translate(380,320)"/>
<path d="M0 0 C0.66 0 1.32 0 2 0 C1.34 1.65 0.68 3.3 0 5 C-0.66 5 -1.32 5 -2 5 C-2.99 8.465 -2.99 8.465 -4 12 C-4.33 12 -4.66 12 -5 12 C-4.58894145 6.75900345 -3.75960806 3.75960806 0 0 Z " fill="#5D65FA" transform="translate(589,459)"/>
<path d="M0 0 C0.66 0.33 1.32 0.66 2 1 C-0.64 3.64 -3.28 6.28 -6 9 C-6.99 8.67 -7.98 8.34 -9 8 C-8.34 8 -7.68 8 -7 8 C-6.773125 7.4225 -6.54625 6.845 -6.3125 6.25 C-4.66961977 3.4336339 -2.60466773 1.91922886 0 0 Z " fill="#3C92F7" transform="translate(441,439)"/>
<path d="M0 0 C0.66 0.33 1.32 0.66 2 1 C1.67 3.97 1.34 6.94 1 10 C0.34 10 -0.32 10 -1 10 C-0.67 6.7 -0.34 3.4 0 0 Z " fill="#8351F9" transform="translate(753,744)"/>
<path d="M0 0 C0.99 0.33 1.98 0.66 3 1 C3 2.98 3 4.96 3 7 C2.01 7 1.02 7 0 7 C0 4.69 0 2.38 0 0 Z " fill="#4483FC" transform="translate(526,289)"/>
<path d="M0 0 C3 1 3 1 3 1 Z " fill="#41A1F3" transform="translate(444,249)"/>
<path d="M0 0 C3 1 3 1 3 1 Z " fill="#42B7EF" transform="translate(340,249)"/>
<path d="M0 0 C2 1 2 1 2 1 Z " fill="#8058ED" transform="translate(700,799)"/>
<path d="M0 0 C2 1 2 1 2 1 Z " fill="#8058ED" transform="translate(696,799)"/>
<path d="M0 0 C2 1 2 1 2 1 Z " fill="#5172E8" transform="translate(317,799)"/>
<path d="" fill="#4D7CEB" transform="translate(0,0)"/>
<path d="" fill="#746AF4" transform="translate(0,0)"/>
<path d="" fill="#5D73F8" transform="translate(0,0)"/>
<path d="" fill="#4A91F7" transform="translate(0,0)"/>
<path d="" fill="#6072FA" transform="translate(0,0)"/>
<path d="M0 0 C2 1 2 1 2 1 Z " fill="#587EF6" transform="translate(560,287)"/>
<path d="M0 0 C2 1 2 1 2 1 Z " fill="#5383F6" transform="translate(536,287)"/>
<path d="M0 0 C2 1 2 1 2 1 Z " fill="#4793F6" transform="translate(488,287)"/>
<path d="M0 0 C2 1 2 1 2 1 Z " fill="#40B8F3" transform="translate(325,287)"/>
<path d="M0 0 C2 1 2 1 2 1 Z " fill="#6C66EF" transform="translate(705,250)"/>
<path d="M0 0 C2 1 2 1 2 1 Z " fill="#6A66EE" transform="translate(692,249)"/>
<path d="M0 0 C2 1 2 1 2 1 Z " fill="#686AF4" transform="translate(678,249)"/>
<path d="M0 0 C2 1 2 1 2 1 Z " fill="#5E71F5" transform="translate(604,249)"/>
<path d="M0 0 C2 1 2 1 2 1 Z " fill="#43A3F2" transform="translate(436,249)"/>
<path d="M0 0 C2 1 2 1 2 1 Z " fill="#40A9F3" transform="translate(420,249)"/>
<path d="M0 0 C2 1 2 1 2 1 Z " fill="#3EACF2" transform="translate(404,249)"/>
<path d="" fill="#363A48" transform="translate(0,0)"/>
<path d="" fill="#5172E7" transform="translate(0,0)"/>
<path d="" fill="#5372E1" transform="translate(0,0)"/>
<path d="" fill="#8258EE" transform="translate(0,0)"/>
<path d="" fill="#5273EA" transform="translate(0,0)"/>
<path d="" fill="#4C73EB" transform="translate(0,0)"/>
<path d="" fill="#5077E9" transform="translate(0,0)"/>
<path d="" fill="#5077E8" transform="translate(0,0)"/>
<path d="" fill="#5075E9" transform="translate(0,0)"/>
<path d="" fill="#4D72E4" transform="translate(0,0)"/>
<path d="" fill="#4E77E5" transform="translate(0,0)"/>
<path d="" fill="#4E76E1" transform="translate(0,0)"/>
<path d="" fill="#5077E8" transform="translate(0,0)"/>
<path d="" fill="#8558EC" transform="translate(0,0)"/>
<path d="" fill="#865AF7" transform="translate(0,0)"/>
<path d="" fill="#4F7CEB" transform="translate(0,0)"/>
<path d="" fill="#8859EC" transform="translate(0,0)"/>
<path d="" fill="#895BF7" transform="translate(0,0)"/>
<path d="" fill="#8659ED" transform="translate(0,0)"/>
<path d="" fill="#875EF4" transform="translate(0,0)"/>
<path d="" fill="#845CF0" transform="translate(0,0)"/>
<path d="" fill="#845AEF" transform="translate(0,0)"/>
<path d="" fill="#5F7FF2" transform="translate(0,0)"/>
<path d="" fill="#845DF2" transform="translate(0,0)"/>
<path d="" fill="#5B7EF5" transform="translate(0,0)"/>
<path d="" fill="#5480F5" transform="translate(0,0)"/>
<path d="" fill="#835CF1" transform="translate(0,0)"/>
<path d="" fill="#766AF5" transform="translate(0,0)"/>
<path d="" fill="#835DF2" transform="translate(0,0)"/>
<path d="" fill="#6175F6" transform="translate(0,0)"/>
<path d="" fill="#4B86F2" transform="translate(0,0)"/>
<path d="" fill="#6074F8" transform="translate(0,0)"/>
<path d="" fill="#4A87F3" transform="translate(0,0)"/>
<path d="" fill="#805DF1" transform="translate(0,0)"/>
<path d="" fill="#488BF2" transform="translate(0,0)"/>
<path d="" fill="#4D8EF7" transform="translate(0,0)"/>
<path d="" fill="#577EF4" transform="translate(0,0)"/>
<path d="" fill="#786BFB" transform="translate(0,0)"/>
<path d="" fill="#4690F5" transform="translate(0,0)"/>
<path d="" fill="#4993F8" transform="translate(0,0)"/>
<path d="" fill="#7868F9" transform="translate(0,0)"/>
<path d="" fill="#4595F3" transform="translate(0,0)"/>
<path d="" fill="#5C75FA" transform="translate(0,0)"/>
<path d="" fill="#7B68FE" transform="translate(0,0)"/>
<path d="" fill="#7B68FD" transform="translate(0,0)"/>
<path d="" fill="#5C74F7" transform="translate(0,0)"/>
<path d="" fill="#7E5EF2" transform="translate(0,0)"/>
<path d="" fill="#7A66FE" transform="translate(0,0)"/>
<path d="" fill="#7A66FE" transform="translate(0,0)"/>
<path d="" fill="#43A0F4" transform="translate(0,0)"/>
<path d="" fill="#5781F6" transform="translate(0,0)"/>
<path d="" fill="#48A3F4" transform="translate(0,0)"/>
<path d="" fill="#8465F7" transform="translate(0,0)"/>
<path d="" fill="#46A2F6" transform="translate(0,0)"/>
<path d="" fill="#44A1F7" transform="translate(0,0)"/>
<path d="" fill="#6E69FB" transform="translate(0,0)"/>
<path d="" fill="#5D74FD" transform="translate(0,0)"/>
<path d="" fill="#597FF7" transform="translate(0,0)"/>
<path d="" fill="#469EF7" transform="translate(0,0)"/>
<path d="" fill="#587EF7" transform="translate(0,0)"/>
<path d="" fill="#489EF6" transform="translate(0,0)"/>
<path d="" fill="#449FF6" transform="translate(0,0)"/>
<path d="" fill="#48A0F6" transform="translate(0,0)"/>
<path d="" fill="#4D9DF4" transform="translate(0,0)"/>
<path d="" fill="#5E7DF4" transform="translate(0,0)"/>
<path d="" fill="#7862EE" transform="translate(0,0)"/>
<path d="" fill="#7370EF" transform="translate(0,0)"/>
<path d="" fill="#528AF1" transform="translate(0,0)"/>
<path d="" fill="#7170F1" transform="translate(0,0)"/>
<path d="" fill="#6C69F5" transform="translate(0,0)"/>
<path d="" fill="#7167FB" transform="translate(0,0)"/>
<path d="" fill="#41B6E6" transform="translate(0,0)"/>
<path d="" fill="#6B69F6" transform="translate(0,0)"/>
<path d="" fill="#6C6AF9" transform="translate(0,0)"/>
<path d="" fill="#6C6AF8" transform="translate(0,0)"/>
<path d="" fill="#6C6AF8" transform="translate(0,0)"/>
<path d="" fill="#6B6BF9" transform="translate(0,0)"/>
<path d="" fill="#6B6AF9" transform="translate(0,0)"/>
<path d="" fill="#686CFB" transform="translate(0,0)"/>
<path d="" fill="#696BF9" transform="translate(0,0)"/>
<path d="" fill="#646FF8" transform="translate(0,0)"/>
<path d="" fill="#6571F7" transform="translate(0,0)"/>
<path d="" fill="#6572F8" transform="translate(0,0)"/>
<path d="" fill="#6372F6" transform="translate(0,0)"/>
<path d="" fill="#6373F8" transform="translate(0,0)"/>
<path d="" fill="#6475F8" transform="translate(0,0)"/>
<path d="" fill="#6377F7" transform="translate(0,0)"/>
<path d="" fill="#6176F7" transform="translate(0,0)"/>
<path d="" fill="#6079F5" transform="translate(0,0)"/>
<path d="" fill="#5E78F7" transform="translate(0,0)"/>
<path d="" fill="#5C7AF7" transform="translate(0,0)"/>
<path d="" fill="#5C7BF8" transform="translate(0,0)"/>
<path d="" fill="#5880F6" transform="translate(0,0)"/>
<path d="" fill="#5682F7" transform="translate(0,0)"/>
<path d="" fill="#5682F5" transform="translate(0,0)"/>
<path d="" fill="#5484F6" transform="translate(0,0)"/>
<path d="" fill="#4596F7" transform="translate(0,0)"/>
<path d="" fill="#449BF5" transform="translate(0,0)"/>
<path d="" fill="#459DF6" transform="translate(0,0)"/>
<path d="" fill="#459FF5" transform="translate(0,0)"/>
<path d="" fill="#44A5F3" transform="translate(0,0)"/>
<path d="" fill="#42A6F4" transform="translate(0,0)"/>
<path d="" fill="#42A8F4" transform="translate(0,0)"/>
<path d="" fill="#42A7F4" transform="translate(0,0)"/>
<path d="" fill="#3FABF6" transform="translate(0,0)"/>
<path d="" fill="#3EB5F3" transform="translate(0,0)"/>
<path d="" fill="#40B9F4" transform="translate(0,0)"/>
<path d="" fill="#43B6E5" transform="translate(0,0)"/>
<path d="" fill="#45B2E0" transform="translate(0,0)"/>
<path d="" fill="#43B4E7" transform="translate(0,0)"/>
<path d="" fill="#6A69F1" transform="translate(0,0)"/>
<path d="" fill="#666AF7" transform="translate(0,0)"/>
<path d="" fill="#646CF6" transform="translate(0,0)"/>
<path d="" fill="#5F6FF7" transform="translate(0,0)"/>
<path d="" fill="#5F70F6" transform="translate(0,0)"/>
<path d="" fill="#5E71F6" transform="translate(0,0)"/>
<path d="" fill="#5F73F6" transform="translate(0,0)"/>
<path d="" fill="#5E73F7" transform="translate(0,0)"/>
<path d="" fill="#5E73F6" transform="translate(0,0)"/>
<path d="" fill="#5C73F5" transform="translate(0,0)"/>
<path d="" fill="#5E78F6" transform="translate(0,0)"/>
<path d="" fill="#5C79F7" transform="translate(0,0)"/>
<path d="" fill="#5B77F6" transform="translate(0,0)"/>
<path d="" fill="#5B7AF5" transform="translate(0,0)"/>
<path d="" fill="#5A7AF5" transform="translate(0,0)"/>
<path d="" fill="#5A7CF5" transform="translate(0,0)"/>
<path d="" fill="#577DF3" transform="translate(0,0)"/>
<path d="" fill="#577DF5" transform="translate(0,0)"/>
<path d="" fill="#547FF5" transform="translate(0,0)"/>
<path d="" fill="#5382F5" transform="translate(0,0)"/>
<path d="" fill="#4E85F7" transform="translate(0,0)"/>
<path d="" fill="#4895F4" transform="translate(0,0)"/>
<path d="" fill="#4795F4" transform="translate(0,0)"/>
<path d="" fill="#4598F6" transform="translate(0,0)"/>
<path d="" fill="#459AF4" transform="translate(0,0)"/>
<path d="" fill="#459EF4" transform="translate(0,0)"/>
<path d="" fill="#469EF3" transform="translate(0,0)"/>
<path d="" fill="#439DF2" transform="translate(0,0)"/>
<path d="" fill="#41A1F2" transform="translate(0,0)"/>
<path d="" fill="#42A4F2" transform="translate(0,0)"/>
<path d="" fill="#41A9F3" transform="translate(0,0)"/>
<path d="" fill="#3FABF4" transform="translate(0,0)"/>
<path d="" fill="#3FB7F0" transform="translate(0,0)"/>
<path d="" fill="#3EB7F2" transform="translate(0,0)"/>
<path d="" fill="#3EB6F1" transform="translate(0,0)"/>
<path d="" fill="#41B8ED" transform="translate(0,0)"/>
<path d="" fill="#44B6EA" transform="translate(0,0)"/>
<path d="" fill="#5F70ED" transform="translate(0,0)"/>
<path d="" fill="#4C88EC" transform="translate(0,0)"/>
<path d="" fill="#41ABE3" transform="translate(0,0)"/>
<path d="" fill="#4C8CE4" transform="translate(0,0)"/>
</svg>
